<?xml version="1.0" encoding="UTF-8"?>
<svg xmlns="http://www.w3.org/2000/svg" xmlns:xlink="http://www.w3.org/1999/xlink" width="32px" height="32px" viewBox="0 0 32 32" version="1.1">
<g id="surface1">
<path style=" stroke:none;fill-rule:nonzero;fill:rgb(98.431373%,80.784314%,2.745098%);fill-opacity:1;" d="M 19.492188 27.84375 C 19.492188 27.316406 17.929688 26.890625 16 26.890625 C 14.070312 26.890625 12.507812 27.316406 12.507812 27.84375 C 12.507812 28.371094 14.070312 28.800781 16 28.800781 C 17.929688 28.800781 19.492188 28.371094 19.492188 27.84375 Z M 19.492188 27.84375 "/>
<path style=" stroke:none;fill-rule:nonzero;fill:rgb(86.666667%,11.372549%,12.941176%);fill-opacity:1;" d="M 14.972656 3.257812 C 10.773438 3.722656 7.414062 7.144531 7.023438 11.351562 C 6.703125 14.773438 8.300781 17.84375 10.859375 19.621094 C 13.433594 21.410156 15.242188 24.101562 15.707031 27.199219 L 15.742188 27.457031 C 15.769531 27.632812 15.921875 27.761719 16.097656 27.761719 C 16.273438 27.761719 16.425781 27.632812 16.453125 27.457031 L 16.535156 26.890625 C 16.980469 23.917969 18.707031 21.332031 21.171875 19.605469 C 23.496094 17.972656 25.015625 15.273438 25.015625 12.214844 C 25.015625 6.898438 20.410156 2.65625 14.972656 3.257812 Z M 16 15.742188 C 14.054688 15.742188 12.476562 14.164062 12.476562 12.214844 C 12.476562 10.269531 14.054688 8.691406 16 8.691406 C 17.945312 8.691406 19.523438 10.269531 19.523438 12.214844 C 19.523438 14.164062 17.945312 15.742188 16 15.742188 Z M 16 15.742188 "/>
</g>
</svg>
